ZiroliWes-Light1.ufo
<glyph name="parenleft" format="1">
  <advance width="373"/>
  <unicode hex="0028"/>
  <outline>
    <contour>
      <point x="305" y="723" type="curve"/>
      <point x="320" y="705" type="line"/>
      <point x="208.94422988" y="643.86838342"/>
      <point x="161" y="511"/>
      <point x="161" y="377" type="curve" smooth="yes"/>
      <point x="161.0" y="233.268542199"/>
      <point x="207.75254834" y="81.226441613"/>
      <point x="314" y="-16" type="curve"/>
      <point x="302" y="-34" type="line"/>
      <point x="206" y="26"/>
      <point x="80" y="186"/>
      <point x="80" y="348" type="curve" smooth="yes"/>
      <point x="80" y="551"/>
      <point x="198.038041616" y="656.785454334"/>
    </contour>
  </outline>
</glyph>
<glyph name="comma" format="1">
  <advance width="251"/>
  <unicode hex="002C"/>
  <outline>
    <contour>
      <point x="25" y="27" type="curve"/>
      <point x="18" y="33" type="line"/>
      <point x="25" y="71"/>
      <point x="50" y="120"/>
      <point x="108" y="120" type="curve" smooth="yes"/>
      <point x="156" y="120"/>
      <point x="195" y="90"/>
      <point x="195" y="33" type="curve" smooth="yes"/>
      <point x="195" y="-40"/>
      <point x="152" y="-113"/>
      <point x="46" y="-184" type="curve"/>
      <point x="37" y="-161" type="line"/>
      <point x="84" y="-131"/>
      <point x="126" y="-81"/>
      <point x="126" y="-18" type="curve" smooth="yes"/>
      <point x="126" y="11"/>
      <point x="105" y="41"/>
      <point x="69" y="41" type="curve" smooth="yes"/>
      <point x="54" y="41"/>
      <point x="39" y="36"/>
    </contour>
  </outline>
</glyph>
<glyph name="four" format="1">
  <advance width="645"/>
  <unicode hex="0034"/>
  <outline>
    <contour>
      <point x="271" y="405" type="curve" smooth="yes"/>
      <point x="398" y="631"/>
      <point x="455" y="657"/>
      <point x="527" y="666" type="curve"/>
      <point x="527" y="680" type="line"/>
      <point x="488" y="674"/>
      <point x="454" y="670"/>
      <point x="390" y="670" type="curve" smooth="yes"/>
      <point x="336" y="670"/>
      <point x="276" y="677"/>
      <point x="239" y="680" type="curve"/>
      <point x="239" y="666" type="line"/>
      <point x="339" y="655"/>
      <point x="308" y="575"/>
      <point x="194" y="381" type="curve" smooth="yes"/>
      <point x="159" y="321"/>
      <point x="108" y="244"/>
      <point x="66" y="195" type="curve"/>
      <point x="168" y="193" type="line"/>
      <point x="185" y="243"/>
      <point x="237" y="345"/>
    </contour>
    <contour>
      <point x="130" y="250" type="curve"/>
      <point x="66" y="195" type="line"/>
      <point x="79" y="179" type="line"/>
      <point x="221" y="189"/>
      <point x="504" y="190"/>
      <point x="569" y="183" type="curve"/>
      <point x="573" y="239"/>
      <point x="589" y="331"/>
      <point x="599" y="362" type="curve"/>
      <point x="584" y="366" type="line"/>
      <point x="566" y="280"/>
      <point x="534" y="239"/>
      <point x="439" y="248" type="curve"/>
      <point x="382" y="245" type="line"/>
      <point x="346" y="242"/>
      <point x="303" y="242"/>
      <point x="250" y="242" type="curve" smooth="yes"/>
      <point x="198" y="242"/>
      <point x="159" y="247"/>
    </contour>
    <contour>
      <point x="357" y="369" type="curve"/>
      <point x="358" y="338"/>
      <point x="360" y="283"/>
      <point x="358" y="209" type="curve"/>
      <point x="456" y="209" type="line"/>
      <point x="455" y="292"/>
      <point x="461" y="357"/>
      <point x="465" y="406" type="curve"/>
      <point x="458" y="408" type="line"/>
      <point x="435" y="389"/>
      <point x="392" y="377"/>
    </contour>
    <contour>
      <point x="556" y="-4" type="curve"/>
      <point x="556" y="12" type="line"/>
      <point x="464" y="17"/>
      <point x="454" y="38"/>
      <point x="454" y="248" type="curve" smooth="yes"/>
      <point x="454" y="310" type="line"/>
      <point x="359" y="310" type="line"/>
      <point x="360" y="248" type="line" smooth="yes"/>
      <point x="363" y="38"/>
      <point x="352" y="17"/>
      <point x="258" y="10" type="curve"/>
      <point x="258" y="-4" type="line"/>
      <point x="309" y="0"/>
      <point x="367" y="4"/>
      <point x="404" y="4" type="curve" smooth="yes"/>
      <point x="443" y="4"/>
      <point x="505" y="0"/>
    </contour>
  </outline>
</glyph>
<glyph name="five" format="1">
  <advance width="577"/>
  <unicode hex="0035"/>
  <outline>
    <contour>
      <point x="465" y="682" type="line"/>
      <point x="448" y="675"/>
      <point x="405" y="670"/>
      <point x="282" y="670" type="curve" smooth="yes"/>
      <point x="241.565217391" y="670.0"/>
      <point x="191" y="670"/>
      <point x="127" y="674" type="curve"/>
      <point x="162" y="599" type="line"/>
      <point x="183" y="601"/>
      <point x="226" y="605"/>
      <point x="266" y="605" type="curve" smooth="yes"/>
      <point x="432" y="605"/>
      <point x="455" y="593"/>
      <point x="467" y="500" type="curve"/>
      <point x="484" y="503" type="line"/>
      <point x="469" y="557"/>
      <point x="456" y="654"/>
      <point x="469" y="681" type="curve"/>
    </contour>
    <contour>
      <point x="127" y="674" type="line"/>
      <point x="130" y="595"/>
      <point x="117.289808324" y="423.709869114"/>
      <point x="107" y="363" type="curve"/>
      <point x="172" y="382" type="line"/>
      <point x="175" y="487"/>
      <point x="184" y="592"/>
      <point x="192" y="658" type="curve"/>
    </contour>
    <contour>
      <point x="244" y="-15" type="curve" smooth="yes"/>
      <point x="429.16091954" y="-15.0"/>
      <point x="511" y="114"/>
      <point x="511" y="237" type="curve" smooth="yes"/>
      <point x="511.0" y="321.409756098"/>
      <point x="442.0" y="443.0"/>
      <point x="296" y="443" type="curve" smooth="yes"/>
      <point x="264" y="443"/>
      <point x="211" y="434"/>
      <point x="146" y="405" type="curve"/>
      <point x="115" y="372" type="line"/>
      <point x="107" y="363" type="line"/>
      <point x="118" y="350" type="line"/>
      <point x="171" y="374"/>
      <point x="217" y="382"/>
      <point x="241" y="382" type="curve" smooth="yes"/>
      <point x="338.0" y="382.0"/>
      <point x="405.0" y="297.171875"/>
      <point x="405" y="199" type="curve" smooth="yes"/>
      <point x="405" y="83"/>
      <point x="321" y="26"/>
      <point x="231" y="27" type="curve" smooth="yes"/>
      <point x="157" y="28"/>
      <point x="87" y="75"/>
      <point x="87" y="162" type="curve" smooth="yes"/>
      <point x="87" y="178"/>
      <point x="88" y="200"/>
      <point x="95" y="229" type="curve"/>
      <point x="84" y="236" type="line"/>
      <point x="57" y="205"/>
      <point x="35" y="170"/>
      <point x="35" y="128" type="curve" smooth="yes"/>
      <point x="35.0" y="38.3076923077"/>
      <point x="150.0" y="-15.0"/>
    </contour>
  </outline>
</glyph>
<glyph name="C" format="1">
  <advance width="681"/>
  <unicode hex="0043"/>
  <outline>
    <contour>
      <point x="151" y="328" type="line"/>
      <point x="151" y="334"/>
      <point x="151" y="341"/>
      <point x="151" y="348" type="curve" smooth="yes"/>
      <point x="151.0" y="555.117437722"/>
      <point x="254.0" y="639.0"/>
      <point x="391" y="639" type="curve" smooth="yes"/>
      <point x="465" y="639"/>
      <point x="520" y="614"/>
      <point x="545" y="589" type="curve" smooth="yes"/>
      <point x="568" y="566"/>
      <point x="578" y="526"/>
      <point x="576" y="465" type="curve"/>
      <point x="593" y="467" type="line"/>
      <point x="582.500799732" y="589.172512212"/>
      <point x="585.305167285" y="645.35145512"/>
      <point x="592" y="675" type="curve"/>
      <point x="585" y="676" type="line"/>
      <point x="581" y="672"/>
      <point x="570" y="672"/>
      <point x="563" y="672" type="curve" smooth="yes"/>
      <point x="537" y="672"/>
      <point x="464" y="684"/>
      <point x="398" y="684" type="curve" smooth="yes"/>
      <point x="182.660377358" y="684.0"/>
      <point x="59.0" y="542.0"/>
      <point x="59" y="338" type="curve"/>
    </contour>
    <contour>
      <point x="150" y="348" type="curve"/>
      <point x="60" y="351" type="line"/>
      <point x="60" y="347"/>
      <point x="59" y="344"/>
      <point x="59" y="341" type="curve" smooth="yes"/>
      <point x="59.0" y="119.618384401"/>
      <point x="211.765217391" y="-17.0"/>
      <point x="425" y="-17" type="curve" smooth="yes"/>
      <point x="449.0" y="-17.0"/>
      <point x="497.0" y="-14.0"/>
      <point x="511" y="-14" type="curve" smooth="yes"/>
      <point x="526" y="-14"/>
      <point x="544" y="-16"/>
      <point x="551" y="-19" type="curve"/>
      <point x="554" y="-11" type="line"/>
      <point x="557" y="17"/>
      <point x="570" y="60"/>
      <point x="607" y="174" type="curve"/>
      <point x="589" y="178" type="line"/>
      <point x="566.859807072" y="55.2225664879"/>
      <point x="501.0" y="25.0"/>
      <point x="430" y="25" type="curve" smooth="yes"/>
      <point x="251.0" y="25.0"/>
      <point x="157.317703565" y="175.511273113"/>
    </contour>
    <component base="c" xOffset="-12"/>
  </outline>
</glyph>
<glyph name="D" format="1">
  <advance width="719"/>
  <unicode hex="0044"/>
  <outline>
    <contour>
      <point x="182" y="609" type="curve"/>
      <point x="186" y="609"/>
      <point x="247" y="625"/>
      <point x="303" y="625" type="curve" smooth="yes"/>
      <point x="456" y="625"/>
      <point x="560" y="535"/>
      <point x="560" y="325" type="curve" smooth="yes"/>
      <point x="560" y="147"/>
      <point x="475.0" y="44.0"/>
      <point x="341" y="44" type="curve" smooth="yes"/>
      <point x="274" y="44"/>
      <point x="233" y="60"/>
      <point x="222" y="68" type="curve"/>
      <point x="153" y="2" type="line"/>
      <point x="191" y="2"/>
      <point x="262" y="-4"/>
      <point x="301" y="-4" type="curve" smooth="yes"/>
      <point x="499.722379603" y="-4.0"/>
      <point x="650.0" y="135.0"/>
      <point x="650" y="370" type="curve" smooth="yes"/>
      <point x="650" y="578"/>
      <point x="493" y="674"/>
      <point x="303" y="674" type="curve" smooth="yes"/>
      <point x="240.222222222" y="674.0"/>
      <point x="241.188034188" y="672.0"/>
      <point x="190" y="672" type="curve"/>
      <point x="190.0" y="662.735294118"/>
      <point x="182.0" y="621.422535211"/>
    </contour>
    <contour>
      <point x="226" y="4" type="line"/>
      <point x="224" y="53"/>
      <point x="220" y="100"/>
      <point x="220" y="338" type="curve" smooth="yes"/>
      <point x="220" y="600"/>
      <point x="223" y="634"/>
      <point x="224" y="672" type="curve"/>
      <point x="190" y="672" type="line"/>
      <point x="159" y="672"/>
      <point x="91" y="675"/>
      <point x="48" y="680" type="curve"/>
      <point x="48" y="666" type="line"/>
      <point x="134" y="656"/>
      <point x="140" y="637"/>
      <point x="140" y="424" type="curve" smooth="yes"/>
      <point x="140" y="248" type="line" smooth="yes"/>
      <point x="140" y="38"/>
      <point x="132" y="17"/>
      <point x="38" y="10" type="curve"/>
      <point x="38" y="-4" type="line"/>
      <point x="86.3992275911" y="-0.347228106332"/>
      <point x="117.404761905" y="2.0"/>
      <point x="153" y="2" type="curve"/>
    </contour>
  </outline>
</glyph>
<glyph name="E" format="1">
  <advance width="603"/>
  <unicode hex="0045"/>
  <outline>
    <contour>
      <point x="190" y="624" type="line" name=""/>
      <point x="206" y="627"/>
      <point x="254" y="632"/>
      <point x="279" y="632" type="curve" name=""/>
      <point x="426" y="632"/>
      <point x="467" y="609"/>
      <point x="475" y="472" type="curve" name=""/>
      <point x="491" y="475" type="line" name=""/>
      <point x="474.994477435" y="591.746164594"/>
      <point x="475.177962327" y="640.491472578"/>
      <point x="478" y="680" type="curve" name=""/>
      <point x="470" y="681" type="line" name=""/>
      <point x="438" y="676"/>
      <point x="362" y="672"/>
      <point x="301" y="672" type="curve" name=""/>
      <point x="193" y="672" type="line" name=""/>
    </contour>
    <contour>
      <point x="183" y="325" type="line"/>
      <point x="197" y="326"/>
      <point x="235" y="328"/>
      <point x="248" y="328" type="curve" smooth="yes"/>
      <point x="307.0" y="328.0"/>
      <point x="354.82986259" y="320.780091606"/>
      <point x="389" y="298" type="curve" smooth="yes"/>
      <point x="411" y="284"/>
      <point x="428" y="263"/>
      <point x="448" y="227" type="curve"/>
      <point x="463" y="234" type="line"/>
      <point x="428" y="282"/>
      <point x="403" y="332"/>
      <point x="389" y="376" type="curve" smooth="yes"/>
      <point x="377" y="412"/>
      <point x="370" y="442"/>
      <point x="364" y="474" type="curve"/>
      <point x="347" y="473" type="line"/>
      <point x="375" y="386"/>
      <point x="338" y="367"/>
      <point x="262" y="367" type="curve" smooth="yes"/>
      <point x="237" y="367"/>
      <point x="197" y="370"/>
      <point x="183" y="371" type="curve"/>
    </contour>
    <contour>
      <point x="252.490566038" y="4.0"/>
      <point x="375.090551501" y="3.83578866126"/>
      <point x="494" y="0" type="curve"/>
      <point x="496" y="14" type="line"/>
      <point x="496.927816514" y="54.8239266078"/>
      <point x="519.891746193" y="144.484150109"/>
      <point x="533" y="181" type="curve"/>
      <point x="516" y="187" type="line"/>
      <point x="494" y="75"/>
      <point x="454" y="44"/>
      <point x="346" y="44" type="curve" smooth="yes"/>
      <point x="297" y="44"/>
      <point x="244" y="55"/>
      <point x="181" y="77" type="curve"/>
      <point x="144" y="4" type="line"/>
    </contour>
    <contour>
      <point x="186" y="4" type="curve"/>
      <point x="185" y="15"/>
      <point x="228" y="26"/>
      <point x="227" y="37" type="curve" smooth="yes"/>
      <point x="221" y="138"/>
      <point x="219" y="255"/>
      <point x="221" y="360" type="curve"/>
      <point x="218" y="476"/>
      <point x="218" y="572"/>
      <point x="222" y="646" type="curve"/>
      <point x="301" y="646" type="line"/>
      <point x="301" y="672" type="line"/>
      <point x="268.902985075" y="672.0"/>
      <point x="124.696942875" y="672.607523578"/>
      <point x="48" y="680" type="curve"/>
      <point x="48" y="666" type="line"/>
      <point x="134" y="656"/>
      <point x="140" y="633"/>
      <point x="140" y="420" type="curve" smooth="yes"/>
      <point x="140" y="245" type="line" smooth="yes"/>
      <point x="140" y="37.6694915254"/>
      <point x="131.993451803" y="18.9995123683"/>
      <point x="38" y="12" type="curve"/>
      <point x="38" y="-4" type="line"/>
      <point x="84.4512108473" y="-0.494248237936"/>
      <point x="121.533742331" y="4.0"/>
    </contour>
  </outline>
</glyph>
<glyph name="G" format="1">
  <advance width="766"/>
  <unicode hex="0047"/>
  <outline>
    <contour>
      <point x="603" y="171" type="curve" smooth="yes"/>
      <point x="603" y="275"/>
      <point x="612" y="295"/>
      <point x="684" y="302" type="curve"/>
      <point x="684" y="317" type="line"/>
      <point x="630" y="311"/>
      <point x="594" y="309"/>
      <point x="555" y="309" type="curve" smooth="yes"/>
      <point x="510.464788732" y="309.0"/>
      <point x="462.49625332" y="313.500416298"/>
      <point x="431" y="317" type="curve"/>
      <point x="431" y="302" type="line"/>
      <point x="512" y="297"/>
      <point x="525" y="280"/>
      <point x="525" y="182" type="curve" smooth="yes"/>
      <point x="525" y="142" type="line"/>
      <point x="546" y="142" type="line"/>
      <point x="546.0" y="14.0"/>
      <point x="624.081772753" y="-6.63370140931"/>
      <point x="675" y="-4" type="curve"/>
      <point x="675" y="11" type="line"/>
      <point x="624" y="12"/>
      <point x="603" y="71"/>
    </contour>
    <contour>
      <point x="562" y="84" type="curve"/>
      <point x="563" y="200" type="line"/>
      <point x="525" y="204" type="line"/>
      <point x="527.000108054" y="100.994435242"/>
      <point x="469.417910448" y="40.0"/>
      <point x="373" y="40" type="curve" smooth="yes"/>
      <point x="240" y="40"/>
      <point x="170" y="192"/>
      <point x="170" y="348" type="curve" smooth="yes"/>
      <point x="170.0" y="555.117437722"/>
      <point x="274.0" y="639.0"/>
      <point x="401" y="639" type="curve" smooth="yes"/>
      <point x="484" y="639"/>
      <point x="548" y="615"/>
      <point x="574" y="589" type="curve" smooth="yes"/>
      <point x="597" y="566"/>
      <point x="607" y="526"/>
      <point x="605" y="465" type="curve"/>
      <point x="622" y="467" type="line"/>
      <point x="611.500799732" y="589.172512212"/>
      <point x="614.305167285" y="645.35145512"/>
      <point x="621" y="675" type="curve"/>
      <point x="614" y="676" type="line"/>
      <point x="610" y="672"/>
      <point x="599" y="672"/>
      <point x="592" y="672" type="curve" smooth="yes"/>
      <point x="566" y="672"/>
      <point x="492" y="684"/>
      <point x="426" y="684" type="curve" smooth="yes"/>
      <point x="206" y="684"/>
      <point x="71" y="542"/>
      <point x="71" y="338" type="curve" smooth="yes"/>
      <point x="71" y="130"/>
      <point x="192" y="-14"/>
      <point x="389" y="-14" type="curve" smooth="yes"/>
      <point x="472.329842932" y="-14.0"/>
      <point x="536.393655281" y="26.8781540883"/>
    </contour>
  </outline>
</glyph>
<glyph name="H" format="1">
  <advance width="760"/>
  <unicode hex="0048"/>
  <outline>
    <contour>
      <point x="237" y="339" type="line"/>
      <point x="275" y="340"/>
      <point x="317" y="342"/>
      <point x="377" y="342" type="curve" smooth="yes"/>
      <point x="444" y="342"/>
      <point x="498" y="340"/>
      <point x="534" y="339" type="curve"/>
      <point x="534" y="401" type="line"/>
      <point x="497" y="399"/>
      <point x="454" y="397"/>
      <point x="390" y="397" type="curve" smooth="yes"/>
      <point x="340" y="397"/>
      <point x="275" y="399"/>
      <point x="237" y="400" type="curve"/>
    </contour>
    <component base="I"/>
    <component base="I" xOffset="380"/>
  </outline>
</glyph>
<glyph name="J" format="1">
  <advance width="522"/>
  <unicode hex="004A"/>
  <outline>
    <contour>
      <point x="196" y="23" type="curve" smooth="yes"/>
      <point x="267" y="23"/>
      <point x="304" y="71"/>
      <point x="304" y="215" type="curve" smooth="yes"/>
      <point x="304" y="356" type="line"/>
      <point x="384" y="356" type="line"/>
      <point x="384" y="193" type="line" smooth="yes"/>
      <point x="384" y="24.0"/>
      <point x="297.648241206" y="-18.0"/>
      <point x="205" y="-18" type="curve" smooth="yes"/>
      <point x="153" y="-18"/>
      <point x="116" y="-15"/>
      <point x="86" y="-15" type="curve" smooth="yes"/>
      <point x="73" y="-15"/>
      <point x="50" y="-16"/>
      <point x="42" y="-22" type="curve"/>
      <point x="40" y="-13" type="line"/>
      <point x="44" y="10"/>
      <point x="52" y="50"/>
      <point x="13" y="189" type="curve"/>
      <point x="29" y="194" type="line"/>
      <point x="57" y="60"/>
      <point x="144" y="23"/>
    </contour>
    <contour>
      <point x="384" y="324" type="line"/>
      <point x="304" y="324" type="line"/>
      <point x="304" y="424" type="line" smooth="yes"/>
      <point x="304" y="637"/>
      <point x="288.201952255" y="655.511400901"/>
      <point x="198" y="666" type="curve"/>
      <point x="198" y="680" type="line"/>
      <point x="242.40514685" y="674.836610831"/>
      <point x="321.973509934" y="672.0"/>
      <point x="354" y="672" type="curve" smooth="yes"/>
      <point x="380.338345865" y="672.0"/>
      <point x="432.067207514" y="675.739903355"/>
      <point x="467" y="680" type="curve"/>
      <point x="467" y="666" type="line"/>
      <point x="383" y="656"/>
      <point x="384" y="627"/>
      <point x="384" y="388" type="curve" smooth="yes"/>
    </contour>
  </outline>
</glyph>
<glyph name="K" format="1">
  <advance width="666"/>
  <unicode hex="004B"/>
  <outline>
    <contour>
      <point x="386" y="680" type="curve"/>
      <point x="386" y="666" type="line"/>
      <point x="445.998355971" y="664.000054801"/>
      <point x="458.212253961" y="616.719082639"/>
      <point x="344" y="471" type="curve" smooth="yes"/>
      <point x="307" y="424"/>
      <point x="267" y="392"/>
      <point x="239" y="371" type="curve"/>
      <point x="239" y="366" type="line"/>
      <point x="333" y="373" type="line"/>
      <point x="372.042036281" y="437.419359863"/>
      <point x="396.820991553" y="469.973734168"/>
      <point x="439" y="520" type="curve" smooth="yes"/>
      <point x="532.767759792" y="631.916358462"/>
      <point x="554.270867031" y="655.803507617"/>
      <point x="644" y="666" type="curve"/>
      <point x="644" y="680" type="line"/>
      <point x="605.879349711" y="676.280912167"/>
      <point x="562.241134752" y="672.0"/>
      <point x="513" y="672" type="curve" smooth="yes"/>
      <point x="468" y="672"/>
      <point x="418" y="676"/>
    </contour>
    <contour>
      <point x="239" y="366" type="line"/>
      <point x="296.412652553" y="292.471515152"/>
      <point x="480.55989529" y="64.0014336395"/>
      <point x="633" y="-69" type="curve"/>
      <point x="638" y="-62" type="line"/>
      <point x="558.246181357" y="54.6399597653"/>
      <point x="401.522288251" y="290.059651517"/>
      <point x="347" y="411" type="curve"/>
      <point x="314" y="387" type="line"/>
    </contour>
    <contour>
      <point x="220" y="338" type="line"/>
      <point x="220" y="424" type="line" smooth="yes"/>
      <point x="220" y="637"/>
      <point x="228" y="656"/>
      <point x="298" y="666" type="curve"/>
      <point x="298" y="680" type="line"/>
      <point x="275.066428495" y="675.753042314"/>
      <point x="216.15625" y="672.0"/>
      <point x="190.0" y="672.0" type="curve" smooth="yes"/>
      <point x="159.0" y="672.0"/>
      <point x="91.0" y="675.0"/>
      <point x="48.0" y="680.0" type="curve"/>
      <point x="48.0" y="666.0" type="line"/>
      <point x="134.0" y="656.0"/>
      <point x="140.0" y="637.0"/>
      <point x="140.0" y="424.0" type="curve" smooth="yes"/>
      <point x="140.0" y="338.0" type="line"/>
    </contour>
    <contour>
      <point x="306" y="-4" type="curve"/>
      <point x="306" y="12" type="line"/>
      <point x="230" y="17"/>
      <point x="220" y="38"/>
      <point x="220" y="248" type="curve" smooth="yes"/>
      <point x="220" y="361" type="line"/>
      <point x="140" y="361" type="line"/>
      <point x="140" y="248" type="line" smooth="yes"/>
      <point x="140" y="38"/>
      <point x="132" y="17"/>
      <point x="38" y="10" type="curve"/>
      <point x="38" y="-4" type="line"/>
      <point x="91" y="0"/>
      <point x="151" y="4"/>
      <point x="190" y="4" type="curve" smooth="yes"/>
      <point x="223.264705882" y="4.0"/>
      <point x="276.075064787" y="-0.580007404175"/>
    </contour>
  </outline>
</glyph>
<glyph name="L" format="1">
  <advance width="564"/>
  <unicode hex="004C"/>
  <outline>
    <contour>
      <point x="159" y="4" type="line"/>
      <point x="318.024464832" y="4.0"/>
      <point x="407.678612433" y="2.1344976078"/>
      <point x="508" y="0" type="curve"/>
      <point x="510" y="14" type="line"/>
      <point x="514" y="71"/>
      <point x="526" y="144"/>
      <point x="540" y="194" type="curve"/>
      <point x="523" y="200" type="line"/>
      <point x="507.186375526" y="80.8706956299"/>
      <point x="466.0" y="47.0"/>
      <point x="375" y="47" type="curve" smooth="yes"/>
      <point x="304" y="47"/>
      <point x="243" y="49"/>
      <point x="159" y="78" type="curve"/>
    </contour>
    <contour>
      <point x="38" y="-4" type="line"/>
      <point x="88.0902893873" y="0.174190782275"/>
      <point x="130.819277108" y="4.0"/>
      <point x="182" y="4" type="curve"/>
      <point x="229" y="4" type="line"/>
      <point x="220" y="115"/>
      <point x="220" y="234"/>
      <point x="220" y="361" type="curve" smooth="yes"/>
      <point x="220" y="648"/>
      <point x="229" y="657"/>
      <point x="310" y="666" type="curve"/>
      <point x="310" y="680" type="line"/>
      <point x="269" y="675"/>
      <point x="199" y="672"/>
      <point x="168" y="672" type="curve" smooth="yes"/>
      <point x="141.802816901" y="672.0"/>
      <point x="84.4349194395" y="675.763381461"/>
      <point x="48" y="680" type="curve"/>
      <point x="48" y="666" type="line"/>
      <point x="134" y="656"/>
      <point x="140" y="637"/>
      <point x="140" y="424" type="curve" smooth="yes"/>
      <point x="140" y="248" type="line" smooth="yes"/>
      <point x="140" y="38"/>
      <point x="132" y="17"/>
      <point x="38" y="10" type="curve"/>
    </contour>
  </outline>
</glyph>
<glyph name="M" format="1">
  <advance width="864"/>
  <unicode hex="004D"/>
  <outline>
    <contour>
      <point x="416" y="90" type="line"/>
      <point x="431" y="246" type="line"/>
      <point x="416" y="275"/>
      <point x="397" y="312"/>
      <point x="376" y="353" type="curve" smooth="yes"/>
      <point x="278" y="546"/>
      <point x="242" y="649"/>
      <point x="243" y="676" type="curve"/>
      <point x="156" y="631" type="line"/>
      <point x="162" y="609" type="line"/>
      <point x="200.957716542" y="531.084566917"/>
      <point x="274.226827167" y="379.638675599"/>
      <point x="335" y="244" type="curve" smooth="yes"/>
      <point x="404" y="90" type="line"/>
    </contour>
    <contour>
      <point x="416" y="90" type="line"/>
      <point x="455.06107294" y="208.184784792"/>
      <point x="592.178276101" y="560.293631225"/>
      <point x="609" y="588" type="curve"/>
      <point x="610" y="661" type="line"/>
      <point x="559" y="676" type="line"/>
      <point x="557.000029976" y="589.001303961"/>
      <point x="450.173770327" y="337.374798745"/>
      <point x="399" y="227" type="curve"/>
    </contour>
    <contour>
      <point x="576" y="614" type="line"/>
      <point x="592.024515853" y="486.805405415"/>
      <point x="607.001851658" y="354.971299304"/>
      <point x="611" y="293" type="curve" smooth="yes"/>
      <point x="627" y="33"/>
      <point x="614.087400288" y="15.8425621777"/>
      <point x="543" y="12" type="curve"/>
      <point x="543" y="-4" type="line"/>
      <point x="579" y="0"/>
      <point x="639" y="4"/>
      <point x="688" y="4" type="curve" smooth="yes"/>
      <point x="725.7300522" y="4.0"/>
      <point x="786" y="0"/>
      <point x="818" y="-4" type="curve"/>
      <point x="817" y="12" type="line"/>
      <point x="724" y="17"/>
      <point x="708" y="43"/>
      <point x="684" y="352" type="curve" smooth="yes"/>
      <point x="680" y="403" type="line" smooth="yes"/>
      <point x="662" y="635"/>
      <point x="668" y="659"/>
      <point x="773" y="666" type="curve"/>
      <point x="779" y="680" type="line"/>
      <point x="749" y="676"/>
      <point x="697.052631579" y="668.0"/>
      <point x="641" y="668" type="curve" smooth="yes"/>
      <point x="600" y="668"/>
      <point x="578" y="672"/>
      <point x="559" y="676" type="curve"/>
      <point x="564" y="645" type="line"/>
    </contour>
    <contour>
      <point x="266" y="-3" type="curve"/>
      <point x="266" y="13" type="line"/>
      <point x="192" y="18"/>
      <point x="178" y="44"/>
      <point x="191" y="291" type="curve" smooth="yes"/>
      <point x="193" y="330" type="line" smooth="yes"/>
      <point x="201" y="488"/>
      <point x="202" y="555"/>
      <point x="206" y="601" type="curve"/>
      <point x="261" y="676" type="line"/>
      <point x="244" y="672"/>
      <point x="215" y="668"/>
      <point x="178" y="668" type="curve" smooth="yes"/>
      <point x="138.833333333" y="668.0"/>
      <point x="73.7424572882" y="676.027842455"/>
      <point x="37" y="680" type="curve"/>
      <point x="37" y="666" type="line"/>
      <point x="139.022941743" y="654.11383203"/>
      <point x="150.041429446" y="643.994306703"/>
      <point x="140" y="403" type="curve" smooth="yes"/>
      <point x="137" y="331" type="line" smooth="yes"/>
      <point x="124.750765595" y="37.0183742876"/>
      <point x="105.564917009" y="24.7879991035"/>
      <point x="19" y="12" type="curve"/>
      <point x="19" y="-4" type="line"/>
      <point x="42.6688395361" y="-0.0551934106574"/>
      <point x="113.597222222" y="4.0"/>
      <point x="158" y="4" type="curve" smooth="yes"/>
      <point x="210.513761468" y="4.0"/>
      <point x="234.748913451" y="0.676598417491"/>
    </contour>
  </outline>
</glyph>
<glyph name="O" format="1">
  <advance width="731"/>
  <unicode hex="004F"/>
  <outline>
    <contour>
      <point x="150" y="357" type="curve" smooth="yes"/>
      <point x="150.0" y="558.0"/>
      <point x="226.994475138" y="657.0"/>
      <point x="358" y="657" type="curve" smooth="yes"/>
      <point x="495.214285714" y="657.0"/>
      <point x="584.0" y="519.0"/>
      <point x="584" y="325" type="curve" smooth="yes"/>
      <point x="584.0" y="115.0"/>
      <point x="511.550561798" y="19.0"/>
      <point x="376" y="19" type="curve" smooth="yes"/>
      <point x="227.226130653" y="19.0"/>
      <point x="150.0" y="194.0"/>
    </contour>
    <contour>
      <point x="59" y="345" type="curve" smooth="yes"/>
      <point x="59" y="119"/>
      <point x="186" y="-27"/>
      <point x="370" y="-27" type="curve" smooth="yes"/>
      <point x="529" y="-27"/>
      <point x="672" y="97"/>
      <point x="672" y="347" type="curve" smooth="yes"/>
      <point x="672" y="551"/>
      <point x="553" y="702"/>
      <point x="367" y="702" type="curve" smooth="yes"/>
      <point x="186" y="702"/>
      <point x="59" y="552"/>
    </contour>
  </outline>
</glyph>
<glyph name="P" format="1">
  <advance width="601"/>
  <unicode hex="0050"/>
  <outline>
    <contour>
      <point x="195" y="615" type="line"/>
      <point x="211" y="619"/>
      <point x="249" y="630"/>
      <point x="301" y="630" type="curve" smooth="yes"/>
      <point x="401" y="630"/>
      <point x="471.0" y="567.462857143"/>
      <point x="471" y="459" type="curve" smooth="yes"/>
      <point x="471" y="359"/>
      <point x="407" y="289"/>
      <point x="336" y="289" type="curve" smooth="yes"/>
      <point x="322" y="289"/>
      <point x="311" y="290"/>
      <point x="304" y="291" type="curve"/>
      <point x="301" y="278" type="line"/>
      <point x="311.139874537" y="275.102892989"/>
      <point x="329.575757576" y="269.0"/>
      <point x="347" y="269" type="curve" smooth="yes"/>
      <point x="455" y="269"/>
      <point x="557" y="344"/>
      <point x="557" y="488" type="curve" smooth="yes"/>
      <point x="557" y="623"/>
      <point x="433" y="676"/>
      <point x="303" y="676" type="curve" smooth="yes"/>
      <point x="269.379310345" y="676.0"/>
      <point x="226.872180451" y="672.0"/>
      <point x="178" y="672" type="curve"/>
    </contour>
    <contour>
      <point x="322" y="-4" type="curve"/>
      <point x="322" y="12" type="line"/>
      <point x="230" y="17"/>
      <point x="220" y="43"/>
      <point x="220" y="248" type="curve" smooth="yes"/>
      <point x="220" y="338" type="line"/>
      <point x="140" y="338" type="line"/>
      <point x="140" y="248" type="line" smooth="yes"/>
      <point x="140" y="38"/>
      <point x="132" y="17"/>
      <point x="38" y="10" type="curve"/>
      <point x="38" y="-4" type="line"/>
      <point x="91" y="0"/>
      <point x="151" y="4"/>
      <point x="190" y="4" type="curve" smooth="yes"/>
      <point x="223.868421053" y="4.0"/>
      <point x="277.666412866" y="-0.522855911023"/>
    </contour>
    <contour>
      <point x="220" y="317" type="line"/>
      <point x="220" y="436"/>
      <point x="221" y="573"/>
      <point x="224" y="672" type="curve"/>
      <point x="178" y="672" type="line"/>
      <point x="149.61971831" y="672.0"/>
      <point x="87.4168784967" y="675.416642035"/>
      <point x="48" y="680" type="curve"/>
      <point x="48" y="666" type="line"/>
      <point x="134" y="656"/>
      <point x="140" y="637"/>
      <point x="140" y="424" type="curve" smooth="yes"/>
      <point x="140" y="317" type="line"/>
    </contour>
  </outline>
</glyph>
<glyph name="Q" format="1">
  <advance width="731"/>
  <unicode hex="0051"/>
  <outline>
    <contour>
      <point x="282" y="-11" type="line"/>
      <point x="295.54902395" y="-12.93557485"/>
      <point x="310.196667181" y="-12.5983335905"/>
      <point x="321" y="-18" type="curve"/>
      <point x="348" y="-47"/>
      <point x="392" y="-94"/>
      <point x="430" y="-131" type="curve" smooth="yes"/>
      <point x="499" y="-198"/>
      <point x="561.067357513" y="-232.0"/>
      <point x="616" y="-232" type="curve" smooth="yes"/>
      <point x="682" y="-232"/>
      <point x="741" y="-197"/>
      <point x="777" y="-158" type="curve"/>
      <point x="772" y="-145" type="line"/>
      <point x="751.34039045" y="-162.560668118"/>
      <point x="726.0" y="-179.0"/>
      <point x="685" y="-179" type="curve" smooth="yes"/>
      <point x="641.84137931" y="-179.0"/>
      <point x="591.859759711" y="-159.484591837"/>
      <point x="536" y="-128" type="curve" smooth="yes"/>
      <point x="516" y="-117"/>
      <point x="446" y="-69"/>
      <point x="372" y="2" type="curve"/>
      <point x="316" y="3" type="line"/>
    </contour>
    <component base="O" xOffset="1"/>
  </outline>
</glyph>
<glyph name="R" format="1">
  <advance width="638"/>
  <unicode hex="0052"/>
  <outline>
    <contour>
      <point x="208" y="621" type="line"/>
      <point x="231" y="629"/>
      <point x="265" y="633"/>
      <point x="301" y="633" type="curve" smooth="yes"/>
      <point x="370.0" y="633.0"/>
      <point x="455.0" y="592.0"/>
      <point x="455" y="473" type="curve" smooth="yes"/>
      <point x="455.0" y="416.890625"/>
      <point x="429.084682322" y="370.055648383"/>
      <point x="394" y="347" type="curve" smooth="yes"/>
      <point x="371.432299732" y="331.300730249"/>
      <point x="331.0" y="331.0"/>
      <point x="311" y="331" type="curve" smooth="yes"/>
      <point x="269.426966292" y="331.0"/>
      <point x="220" y="343"/>
      <point x="211" y="345" type="curve"/>
      <point x="211" y="297" type="line"/>
      <point x="223" y="296"/>
      <point x="261" y="294"/>
      <point x="288" y="294" type="curve" smooth="yes"/>
      <point x="320.0" y="294.0"/>
      <point x="340.041826198" y="288.004920729"/>
      <point x="357" y="290" type="curve"/>
      <point x="372" y="317" type="line"/>
      <point x="481" y="349"/>
      <point x="533" y="427"/>
      <point x="533" y="516" type="curve" smooth="yes"/>
      <point x="533" y="623"/>
      <point x="445" y="677"/>
      <point x="325" y="676" type="curve" smooth="yes"/>
      <point x="286.040268456" y="676.0"/>
      <point x="242.751677852" y="672.0"/>
      <point x="196" y="672" type="curve"/>
    </contour>
    <contour>
      <point x="334" y="297" type="line"/>
      <point x="419" y="161"/>
      <point x="490.106444783" y="41.2027581211"/>
      <point x="597" y="-50" type="curve"/>
      <point x="607" y="-40" type="line"/>
      <point x="582.590899286" y="-4.40339479203"/>
      <point x="561" y="31"/>
      <point x="539" y="76" type="curve" smooth="yes"/>
      <point x="493" y="170"/>
      <point x="441.026318606" y="260.895921878"/>
      <point x="419" y="348" type="curve"/>
    </contour>
    <contour>
      <point x="220" y="317" type="line"/>
      <point x="217" y="436"/>
      <point x="219" y="573"/>
      <point x="222" y="672" type="curve"/>
      <point x="182" y="672" type="line"/>
      <point x="151" y="672"/>
      <point x="91" y="675"/>
      <point x="48" y="680" type="curve"/>
      <point x="48" y="666" type="line"/>
      <point x="134" y="656"/>
      <point x="140" y="637"/>
      <point x="140" y="424" type="curve" smooth="yes"/>
      <point x="140" y="317" type="line"/>
    </contour>
    <contour>
      <point x="306" y="-4" type="curve"/>
      <point x="306" y="12" type="line"/>
      <point x="230" y="17"/>
      <point x="220" y="38"/>
      <point x="220" y="248" type="curve" smooth="yes"/>
      <point x="220" y="338" type="line"/>
      <point x="140" y="338" type="line"/>
      <point x="140" y="248" type="line" smooth="yes"/>
      <point x="140" y="38"/>
      <point x="132" y="17"/>
      <point x="38" y="10" type="curve"/>
      <point x="38" y="-4" type="line"/>
      <point x="91" y="0"/>
      <point x="151" y="4"/>
      <point x="190" y="4" type="curve" smooth="yes"/>
      <point x="223.264705882" y="4.0"/>
      <point x="276.075064787" y="-0.580007404175"/>
    </contour>
  </outline>
</glyph>
<glyph name="S" format="1">
  <advance width="528"/>
  <unicode hex="0053"/>
  <outline>
    <contour>
      <point x="273" y="683" type="curve" smooth="yes"/>
      <point x="327" y="683"/>
      <point x="382" y="668"/>
      <point x="401" y="668" type="curve" smooth="yes"/>
      <point x="415" y="668"/>
      <point x="424" y="671"/>
      <point x="430" y="676" type="curve"/>
      <point x="438" y="675" type="line"/>
      <point x="431" y="646"/>
      <point x="430" y="565"/>
      <point x="447" y="458" type="curve"/>
      <point x="431" y="455" type="line"/>
      <point x="421" y="614"/>
      <point x="346" y="638"/>
      <point x="264" y="638" type="curve" smooth="yes"/>
      <point x="210" y="638"/>
      <point x="161.0" y="605.0"/>
      <point x="161" y="540" type="curve" smooth="yes"/>
      <point x="161.0" y="473.0"/>
      <point x="229.148218092" y="433.428517472"/>
      <point x="266" y="405" type="curve" smooth="yes"/>
      <point x="312.227773285" y="369.522871665"/>
      <point x="365.359540364" y="337.640459636"/>
      <point x="385" y="318" type="curve" smooth="yes"/>
      <point x="443" y="261"/>
      <point x="459" y="221"/>
      <point x="459" y="159" type="curve" smooth="yes"/>
      <point x="459.0" y="86.9651162791"/>
      <point x="403.460784314" y="-18.0"/>
      <point x="253" y="-18" type="curve" smooth="yes"/>
      <point x="203.166666667" y="-18.0"/>
      <point x="146.625" y="0.0"/>
      <point x="115" y="0" type="curve" smooth="yes"/>
      <point x="105" y="0"/>
      <point x="93" y="-2"/>
      <point x="87" y="-10" type="curve"/>
      <point x="80" y="-10" type="line"/>
      <point x="82" y="63"/>
      <point x="79" y="120"/>
      <point x="51" y="216" type="curve"/>
      <point x="68" y="220" type="line"/>
      <point x="111.911542497" y="60.3216636468"/>
      <point x="159.275362319" y="25.0"/>
      <point x="269" y="25" type="curve" smooth="yes"/>
      <point x="333.0" y="25.0"/>
      <point x="380.0" y="81.9333333333"/>
      <point x="380" y="137" type="curve" smooth="yes"/>
      <point x="380.0" y="204.536585366"/>
      <point x="327.412999875" y="269.130461616"/>
      <point x="196" y="350" type="curve" smooth="yes"/>
      <point x="155" y="375"/>
      <point x="80.0" y="432.638888889"/>
      <point x="80" y="525" type="curve" smooth="yes"/>
      <point x="80.0" y="625.0"/>
      <point x="164.200980392" y="683.0"/>
    </contour>
  </outline>
</glyph>
<glyph name="T" format="1">
  <advance width="645"/>
  <unicode hex="0054"/>
  <outline>
    <contour>
      <point x="334" y="622" type="curve"/>
      <point x="334" y="635"/>
      <point x="334.0" y="651.326530612"/>
      <point x="334" y="663" type="curve"/>
      <point x="306" y="663" type="line" smooth="yes"/>
      <point x="179.0" y="663"/>
      <point x="114" y="670"/>
      <point x="84" y="701" type="curve"/>
      <point x="74" y="700" type="line"/>
      <point x="74.0" y="661.258474576"/>
      <point x="64" y="568"/>
      <point x="37" y="488" type="curve"/>
      <point x="53" y="486" type="line"/>
      <point x="81" y="601"/>
      <point x="123" y="622"/>
      <point x="283" y="622" type="curve"/>
      <point x="298" y="622"/>
      <point x="296" y="623"/>
    </contour>
    <contour>
      <point x="264" y="623" type="curve"/>
      <point x="301" y="624"/>
      <point x="347" y="622"/>
      <point x="421" y="622" type="curve" smooth="yes"/>
      <point x="548" y="622"/>
      <point x="592" y="596"/>
      <point x="601" y="487" type="curve"/>
      <point x="617" y="490" type="line"/>
      <point x="598" y="582"/>
      <point x="595.331119498" y="666.384060382"/>
      <point x="600" y="700" type="curve"/>
      <point x="591" y="701" type="line"/>
      <point x="567.716509029" y="673.835927201"/>
      <point x="508" y="663"/>
      <point x="320" y="663" type="curve" smooth="yes"/>
      <point x="264" y="663" type="line"/>
      <point x="264.0" y="651.3125"/>
      <point x="264" y="636"/>
    </contour>
    <contour>
      <point x="479" y="-4" type="curve"/>
      <point x="479" y="12" type="line"/>
      <point x="387" y="17"/>
      <point x="377" y="38"/>
      <point x="377" y="248" type="curve" smooth="yes"/>
      <point x="377" y="338" type="line"/>
      <point x="297" y="338" type="line"/>
      <point x="297" y="248" type="line" smooth="yes"/>
      <point x="297" y="38"/>
      <point x="289" y="17"/>
      <point x="195" y="10" type="curve"/>
      <point x="195" y="-4" type="line"/>
      <point x="244.533597531" y="-0.261615280652"/>
      <point x="300.565789474" y="4.0"/>
      <point x="337" y="4" type="curve" smooth="yes"/>
      <point x="373.434210526" y="4.0"/>
      <point x="431.334031931" y="-0.261492700495"/>
    </contour>
    <contour>
      <point x="296" y="628" type="line"/>
      <point x="297" y="524"/>
      <point x="297" y="493"/>
      <point x="297" y="431" type="curve" smooth="yes"/>
      <point x="297" y="324" type="line"/>
      <point x="377" y="324" type="line"/>
      <point x="377" y="431" type="line" smooth="yes"/>
      <point x="377" y="493"/>
      <point x="377" y="524"/>
      <point x="378" y="628" type="curve"/>
    </contour>
  </outline>
</glyph>
<glyph name="W" format="1">
  <advance width="956"/>
  <unicode hex="0057"/>
  <outline>
    <contour>
      <point x="270" y="-24" type="line"/>
      <point x="329" y="127" type="line" smooth="yes"/>
      <point x="402" y="291"/>
      <point x="452" y="419"/>
      <point x="508" y="543" type="curve"/>
      <point x="489" y="670" type="line"/>
      <point x="417" y="469" type="line" smooth="yes"/>
      <point x="349.788866585" y="281.368919217"/>
      <point x="298.793474411" y="189.855969983"/>
      <point x="257" y="100" type="curve"/>
    </contour>
    <contour>
      <point x="677" y="-24" type="line"/>
      <point x="801" y="413" type="line" smooth="yes"/>
      <point x="867" y="644"/>
      <point x="876" y="660"/>
      <point x="942" y="666" type="curve"/>
      <point x="942" y="680" type="line"/>
      <point x="916.741572809" y="677.293739944"/>
      <point x="849.207207207" y="676.0"/>
      <point x="842" y="676" type="curve" smooth="yes"/>
      <point x="821" y="676"/>
      <point x="754" y="677"/>
      <point x="724" y="680" type="curve"/>
      <point x="724" y="666" type="line"/>
      <point x="785" y="660"/>
      <point x="800" y="647"/>
      <point x="753" y="451" type="curve" smooth="yes"/>
      <point x="729" y="349"/>
      <point x="691" y="213"/>
      <point x="650" y="76" type="curve"/>
    </contour>
    <contour>
      <point x="0" y="666" type="line"/>
      <point x="78" y="656"/>
      <point x="84" y="647"/>
      <point x="168" y="324" type="curve" smooth="yes"/>
      <point x="258" y="-24" type="line"/>
      <point x="270" y="-24" type="line"/>
      <point x="297" y="155" type="line"/>
      <point x="262" y="264"/>
      <point x="239" y="361"/>
      <point x="217" y="460" type="curve" smooth="yes"/>
      <point x="176" y="647"/>
      <point x="179" y="659"/>
      <point x="236" y="666" type="curve"/>
      <point x="236" y="680" type="line"/>
      <point x="208.380826967" y="676.190458892"/>
      <point x="167.647058824" y="672.0"/>
      <point x="138" y="672" type="curve" smooth="yes"/>
      <point x="114" y="672"/>
      <point x="27" y="676"/>
      <point x="0" y="680" type="curve"/>
    </contour>
    <contour>
      <point x="474" y="504" type="line"/>
      <point x="546" y="327"/>
      <point x="595" y="204"/>
      <point x="676" y="-24" type="curve"/>
      <point x="688" y="-24" type="line"/>
      <point x="706" y="152" type="line"/>
      <point x="650.613829484" y="265.793404879"/>
      <point x="592" y="420"/>
      <point x="550" y="538" type="curve" smooth="yes"/>
      <point x="503" y="670" type="line"/>
      <point x="489" y="670" type="line"/>
    </contour>
  </outline>
</glyph>
<glyph name="X" format="1">
  <advance width="766"/>
  <unicode hex="0058"/>
  <outline>
    <contour>
      <point x="332" y="501" type="line" smooth="yes"/>
      <point x="258" y="624"/>
      <point x="256" y="657"/>
      <point x="319" y="666" type="curve"/>
      <point x="319" y="680" type="line"/>
      <point x="281" y="676"/>
      <point x="260" y="672"/>
      <point x="197" y="672" type="curve" smooth="yes"/>
      <point x="129" y="672"/>
      <point x="68" y="676"/>
      <point x="35" y="680" type="curve"/>
      <point x="35" y="666" type="line"/>
      <point x="110" y="659"/>
      <point x="141" y="637"/>
      <point x="256" y="459" type="curve" smooth="yes"/>
      <point x="349" y="315" type="line"/>
      <point x="366" y="297" type="line"/>
      <point x="439" y="171" type="line" smooth="yes"/>
      <point x="509" y="50"/>
      <point x="500" y="13"/>
      <point x="441" y="12" type="curve"/>
      <point x="441" y="-4" type="line"/>
      <point x="477" y="1"/>
      <point x="543" y="4"/>
      <point x="579" y="4" type="curve" smooth="yes"/>
      <point x="614" y="4"/>
      <point x="692" y="1"/>
      <point x="728" y="-4" type="curve"/>
      <point x="728" y="12" type="line"/>
      <point x="652" y="20"/>
      <point x="611" y="45"/>
      <point x="497" y="236" type="curve" smooth="yes"/>
      <point x="411" y="380" type="line"/>
      <point x="393" y="400" type="line"/>
    </contour>
    <contour>
      <point x="355" y="396" type="line"/>
      <point x="333" y="354"/>
      <point x="297" y="287"/>
      <point x="254" y="218" type="curve" smooth="yes"/>
      <point x="146" y="44"/>
      <point x="111" y="24"/>
      <point x="23" y="12" type="curve"/>
      <point x="23" y="-4" type="line"/>
      <point x="48" y="-2"/>
      <point x="122" y="4"/>
      <point x="189" y="4" type="curve" smooth="yes"/>
      <point x="216.125" y="4.0"/>
      <point x="258.96268563" y="-1.37150177779"/>
      <point x="287" y="-4" type="curve"/>
      <point x="287" y="12" type="line"/>
      <point x="240" y="14"/>
      <point x="222" y="42"/>
      <point x="277" y="151" type="curve" smooth="yes"/>
      <point x="299" y="195"/>
      <point x="356" y="292"/>
      <point x="397" y="352" type="curve"/>
    </contour>
    <contour>
      <point x="438" y="406" type="line" smooth="yes"/>
      <point x="554" y="605"/>
      <point x="592" y="658"/>
      <point x="688" y="666" type="curve"/>
      <point x="688" y="680" type="line"/>
      <point x="660.944743587" y="676.392632478"/>
      <point x="588.1" y="673.0"/>
      <point x="562" y="673" type="curve" smooth="yes"/>
      <point x="539" y="673"/>
      <point x="468" y="676"/>
      <point x="440" y="680" type="curve"/>
      <point x="440" y="666" type="line"/>
      <point x="504" y="659"/>
      <point x="498" y="617"/>
      <point x="446" y="517" type="curve" smooth="yes"/>
      <point x="397" y="425"/>
      <point x="389" y="412"/>
      <point x="355" y="374" type="curve"/>
      <point x="397" y="334" type="line"/>
    </contour>
  </outline>
</glyph>
<glyph name="Y" format="1">
  <advance width="656"/>
  <unicode hex="0059"/>
  <outline>
    <contour>
      <point x="351" y="289" type="line"/>
      <point x="405" y="385" type="line" smooth="yes"/>
      <point x="529" y="605"/>
      <point x="553" y="655"/>
      <point x="635" y="666" type="curve"/>
      <point x="635" y="680" type="line"/>
      <point x="609" y="675"/>
      <point x="568" y="672"/>
      <point x="530" y="672" type="curve" smooth="yes"/>
      <point x="513" y="672"/>
      <point x="439" y="674"/>
      <point x="413" y="677" type="curve"/>
      <point x="413" y="663" type="line"/>
      <point x="468" y="658"/>
      <point x="465" y="608"/>
      <point x="401" y="469" type="curve" smooth="yes"/>
      <point x="386" y="437"/>
      <point x="355" y="385"/>
      <point x="318" y="323" type="curve"/>
    </contour>
    <contour>
      <point x="295" y="280" type="curve"/>
      <point x="362" y="327" type="line"/>
      <point x="336.0" y="370.0"/>
      <point x="317.0" y="392.0"/>
      <point x="278" y="460" type="curve" smooth="yes"/>
      <point x="189" y="615"/>
      <point x="206" y="659"/>
      <point x="256" y="665" type="curve"/>
      <point x="256" y="679" type="line"/>
      <point x="225" y="672"/>
      <point x="181" y="672"/>
      <point x="137" y="672" type="curve" smooth="yes"/>
      <point x="109" y="672"/>
      <point x="39" y="676"/>
      <point x="5" y="680" type="curve"/>
      <point x="5" y="666" type="line"/>
      <point x="81" y="655"/>
      <point x="115" y="595"/>
      <point x="224" y="409" type="curve" smooth="yes"/>
      <point x="260" y="347"/>
      <point x="283" y="305"/>
    </contour>
    <contour>
      <point x="464" y="-4" type="curve"/>
      <point x="464" y="12" type="line"/>
      <point x="372.89929141" y="16.9511254668"/>
      <point x="360.710591461" y="29.9532314852"/>
      <point x="363" y="236" type="curve" smooth="yes"/>
      <point x="364" y="326" type="line"/>
      <point x="283" y="326" type="line"/>
      <point x="283" y="236" type="line" smooth="yes"/>
      <point x="283" y="26"/>
      <point x="275" y="17"/>
      <point x="181" y="10" type="curve"/>
      <point x="181" y="-4" type="line"/>
      <point x="234" y="0"/>
      <point x="294" y="4"/>
      <point x="333" y="4" type="curve" smooth="yes"/>
      <point x="367" y="4"/>
      <point x="421" y="0"/>
    </contour>
  </outline>
</glyph>
<glyph name="Z" format="1">
  <advance width="638"/>
  <unicode hex="005A"/>
  <outline>
    <contour>
      <point x="78" y="7" type="line"/>
      <point x="83" y="-4" type="line"/>
      <point x="143.535491586" y="0.174861488689"/>
      <point x="304" y="4"/>
      <point x="392" y="4" type="curve"/>
      <point x="392" y="26" type="line"/>
      <point x="320" y="24"/>
      <point x="197" y="33"/>
      <point x="202" y="44" type="curve" smooth="yes"/>
      <point x="279" y="206"/>
      <point x="416" y="417"/>
      <point x="490" y="549" type="curve" smooth="yes"/>
      <point x="557" y="666" type="line"/>
      <point x="557" y="680" type="line"/>
      <point x="507" y="673"/>
      <point x="319" y="672"/>
      <point x="258" y="672" type="curve"/>
      <point x="258" y="640" type="line"/>
      <point x="433" y="642" type="line"/>
      <point x="390" y="542"/>
      <point x="305" y="415"/>
      <point x="171" y="174" type="curve" smooth="yes"/>
    </contour>
    <contour>
      <point x="131" y="4" type="line"/>
      <point x="152" y="4"/>
      <point x="171" y="4"/>
      <point x="190" y="4" type="curve" smooth="yes"/>
      <point x="335" y="4"/>
      <point x="449" y="3"/>
      <point x="535" y="0" type="curve"/>
      <point x="537" y="15" type="line"/>
      <point x="539.857370654" y="87.3867232338"/>
      <point x="549.484319109" y="157.717131385"/>
      <point x="560" y="195" type="curve"/>
      <point x="544" y="199" type="line"/>
      <point x="530" y="79"/>
      <point x="492" y="46"/>
      <point x="329" y="46" type="curve" smooth="yes"/>
      <point x="288" y="46"/>
      <point x="220" y="47"/>
      <point x="138" y="62" type="curve"/>
    </contour>
    <contour>
      <point x="499" y="614" type="curve"/>
      <point x="499" y="626"/>
      <point x="513" y="663"/>
      <point x="513" y="673" type="curve"/>
      <point x="276" y="672" type="line" smooth="yes"/>
      <point x="187" y="672"/>
      <point x="160" y="672"/>
      <point x="125" y="678" type="curve"/>
      <point x="116" y="678" type="line"/>
      <point x="116" y="639"/>
      <point x="104" y="547"/>
      <point x="85" y="469" type="curve"/>
      <point x="99" y="466" type="line"/>
      <point x="117" y="587"/>
      <point x="161" y="629"/>
      <point x="354" y="629" type="curve" smooth="yes"/>
      <point x="392" y="629"/>
      <point x="465" y="622"/>
    </contour>
  </outline>
</glyph>
<glyph name="I.Bottom.Minor" format="1">
  <advance width="343"/>
  <outline>
    <contour>
      <point x="122" y="338" type="line"/>
      <point x="122" y="113" type="line" smooth="yes"/>
      <point x="122" y="47"/>
      <point x="111" y="27"/>
      <point x="37" y="16" type="curve"/>
      <point x="37" y="0" type="line"/>
      <point x="221" y="0" type="line"/>
      <point x="221" y="338" type="line"/>
    </contour>
  </outline>
</glyph>
<glyph name="I.Top.Major" format="1">
  <advance width="380"/>
  <outline>
    <contour>
      <point x="342" y="-4" type="curve"/>
      <point x="342" y="12" type="line"/>
      <point x="250" y="17"/>
      <point x="240" y="38"/>
      <point x="240" y="248" type="curve" smooth="yes"/>
      <point x="240" y="424" type="line" smooth="yes"/>
      <point x="240" y="637"/>
      <point x="248" y="656"/>
      <point x="332" y="666" type="curve"/>
      <point x="332" y="680" type="line"/>
      <point x="291" y="675"/>
      <point x="221" y="673"/>
      <point x="190" y="673" type="curve" smooth="yes"/>
      <point x="159" y="673"/>
      <point x="91" y="675"/>
      <point x="48" y="680" type="curve"/>
      <point x="48" y="666" type="line"/>
      <point x="134" y="656"/>
      <point x="140" y="637"/>
      <point x="140" y="424" type="curve" smooth="yes"/>
      <point x="140" y="248" type="line" smooth="yes"/>
      <point x="140" y="38"/>
      <point x="132" y="17"/>
      <point x="38" y="10" type="curve"/>
      <point x="38" y="-4" type="line"/>
      <point x="91" y="0"/>
      <point x="151" y="4"/>
      <point x="190" y="4" type="curve" smooth="yes"/>
      <point x="229" y="4"/>
      <point x="291" y="0"/>
    </contour>
  </outline>
</glyph>
<glyph name="K.001" format="1">
  <advance width="666"/>
  <outline>
    <contour>
      <point x="240" y="338" type="line"/>
      <point x="240" y="424" type="line" smooth="yes"/>
      <point x="240" y="637"/>
      <point x="248" y="656"/>
      <point x="318" y="666" type="curve"/>
      <point x="318" y="680" type="line"/>
      <point x="291" y="675"/>
      <point x="221" y="672"/>
      <point x="190" y="672" type="curve" smooth="yes"/>
      <point x="159" y="672"/>
      <point x="91" y="675"/>
      <point x="48" y="680" type="curve"/>
      <point x="48" y="666" type="line"/>
      <point x="134" y="656"/>
      <point x="140" y="637"/>
      <point x="140" y="424" type="curve" smooth="yes"/>
      <point x="140" y="338" type="line"/>
    </contour>
    <contour>
      <point x="326" y="-4" type="curve"/>
      <point x="326" y="12" type="line"/>
      <point x="250" y="17"/>
      <point x="240" y="38"/>
      <point x="240" y="248" type="curve" smooth="yes"/>
      <point x="240" y="361" type="line"/>
      <point x="140" y="361" type="line"/>
      <point x="140" y="248" type="line" smooth="yes"/>
      <point x="140" y="38"/>
      <point x="132" y="17"/>
      <point x="38" y="10" type="curve"/>
      <point x="38" y="-4" type="line"/>
      <point x="91" y="0"/>
      <point x="151" y="4"/>
      <point x="190" y="4" type="curve" smooth="yes"/>
      <point x="229" y="4"/>
      <point x="291" y="0"/>
    </contour>
    <contour>
      <point x="259" y="361" type="line"/>
      <point x="338" y="366"/>
      <point x="371" y="335"/>
      <point x="388" y="259" type="curve" smooth="yes"/>
      <point x="403" y="193"/>
      <point x="407" y="133"/>
      <point x="417" y="92" type="curve" smooth="yes"/>
      <point x="438" y="8"/>
      <point x="497" y="-10"/>
      <point x="549" y="-10" type="curve" smooth="yes"/>
      <point x="579" y="-10"/>
      <point x="629" y="-4"/>
      <point x="640" y="-3" type="curve"/>
      <point x="640" y="12" type="line"/>
      <point x="585" y="7"/>
      <point x="540" y="30"/>
      <point x="518" y="138" type="curve" smooth="yes"/>
      <point x="499" y="235"/>
      <point x="478" y="313"/>
      <point x="443" y="350" type="curve" smooth="yes"/>
      <point x="410" y="385"/>
      <point x="366" y="390"/>
      <point x="296" y="390" type="curve"/>
    </contour>
    <contour>
      <point x="406" y="680" type="curve"/>
      <point x="406" y="666" type="line"/>
      <point x="466" y="664"/>
      <point x="480" y="614"/>
      <point x="364" y="466" type="curve" smooth="yes"/>
      <point x="327" y="419"/>
      <point x="287" y="385"/>
      <point x="259" y="366" type="curve"/>
      <point x="259" y="361" type="line"/>
      <point x="358" y="368" type="line"/>
      <point x="398" y="434"/>
      <point x="430" y="469"/>
      <point x="473" y="520" type="curve" smooth="yes"/>
      <point x="566" y="631"/>
      <point x="586" y="656"/>
      <point x="674" y="666" type="curve"/>
      <point x="674" y="680" type="line"/>
      <point x="633" y="676"/>
      <point x="586" y="672"/>
      <point x="533" y="672" type="curve" smooth="yes"/>
      <point x="488" y="672"/>
      <point x="438" y="676"/>
    </contour>
  </outline>
</glyph>
<glyph name="O.002" format="1">
  <advance width="638"/>
  <outline>
    <contour>
      <point x="45" y="331" type="curve" smooth="yes"/>
      <point x="45" y="119"/>
      <point x="134" y="-15"/>
      <point x="319" y="-15" type="curve" smooth="yes"/>
      <point x="504" y="-15"/>
      <point x="593" y="119"/>
      <point x="593" y="332" type="curve" smooth="yes"/>
      <point x="593" y="547"/>
      <point x="504" y="682"/>
      <point x="319" y="682" type="curve" smooth="yes"/>
      <point x="134" y="682"/>
      <point x="45" y="547"/>
    </contour>
    <contour>
      <point x="319" y="31" type="curve" smooth="yes"/>
      <point x="226" y="31"/>
      <point x="147" y="107"/>
      <point x="147" y="331" type="curve" smooth="yes"/>
      <point x="147" y="570"/>
      <point x="226" y="636"/>
      <point x="319" y="636" type="curve" smooth="yes"/>
      <point x="412" y="636"/>
      <point x="491" y="560"/>
      <point x="491" y="331" type="curve" smooth="yes"/>
      <point x="491" y="97"/>
      <point x="412" y="31"/>
    </contour>
  </outline>
</glyph>
<glyph name="S.001" format="1">
  <advance width="520"/>
  <outline>
    <contour>
      <point x="238.0" y="683.0" type="curve" smooth="yes"/>
      <point x="290.0" y="683.0"/>
      <point x="330.0" y="665.0"/>
      <point x="356.0" y="665.0" type="curve" smooth="yes"/>
      <point x="371.0" y="665.0"/>
      <point x="391" y="676"/>
      <point x="390" y="695" type="curve"/>
      <point x="403" y="697" type="line"/>
      <point x="419" y="648"/>
      <point x="447" y="581"/>
      <point x="485" y="508" type="curve"/>
      <point x="470" y="500" type="line"/>
      <point x="415" y="587"/>
      <point x="359" y="635"/>
      <point x="290.0" y="635.0" type="curve" smooth="yes"/>
      <point x="224" y="635"/>
      <point x="182.0" y="592.0"/>
      <point x="182.0" y="530.0" type="curve" smooth="yes"/>
      <point x="182.0" y="495.0"/>
      <point x="200" y="437"/>
      <point x="295" y="394" type="curve" smooth="yes"/>
      <point x="370" y="360"/>
      <point x="429" y="341"/>
      <point x="465.0" y="305.0" type="curve" smooth="yes"/>
      <point x="489" y="281"/>
      <point x="510.0" y="239.0"/>
      <point x="510.0" y="188.0" type="curve" smooth="yes"/>
      <point x="510.0" y="74.0"/>
      <point x="424.0" y="-18.0"/>
      <point x="277.0" y="-18.0" type="curve" smooth="yes"/>
      <point x="206.0" y="-18.0"/>
      <point x="148.0" y="4.0"/>
      <point x="126.0" y="4.0" type="curve" smooth="yes"/>
      <point x="105.0" y="4.0"/>
      <point x="98.0" y="-11.0"/>
      <point x="96.0" y="-21.0" type="curve"/>
      <point x="84.0" y="-22.0" type="line"/>
      <point x="65.0" y="46.0"/>
      <point x="39" y="130"/>
      <point x="7" y="194" type="curve"/>
      <point x="25" y="203" type="line"/>
      <point x="86" y="88"/>
      <point x="157" y="27"/>
      <point x="253" y="27" type="curve" smooth="yes"/>
      <point x="337" y="27"/>
      <point x="393" y="81"/>
      <point x="393" y="167" type="curve" smooth="yes"/>
      <point x="393" y="242"/>
      <point x="362" y="297"/>
      <point x="259.0" y="341.0" type="curve" smooth="yes"/>
      <point x="176" y="376"/>
      <point x="149" y="389"/>
      <point x="117" y="413" type="curve" smooth="yes"/>
      <point x="81" y="440"/>
      <point x="56" y="479"/>
      <point x="56.0" y="536.0" type="curve"/>
      <point x="56" y="612"/>
      <point x="120.0" y="683.0"/>
    </contour>
  </outline>
</glyph>
